HIERARCHY
ROOT hip
{
  OFFSET 0 0 0
  CHANNELS 6 Xposition Yposition Zposition Zrotation Yrotation Xrotation
  JOINT abdomen
  {
    OFFSET 0 20.6881 -0.73152
    CHANNELS 3 Zrotation Xrotation Yrotation
    JOINT chest
    {
      OFFSET 0 11.7043 -0.48768
      CHANNELS 3 Zrotation Xrotation Yrotation
      JOINT neck
      {
        OFFSET 0 22.1894 -2.19456
        CHANNELS 3 Zrotation Xrotation Yrotation
        JOINT head
        {
          OFFSET -0.24384 7.07133 1.2192
          CHANNELS 3 Zrotation Xrotation Yrotation
          JOINT leftEye
          {
            OFFSET 4.14528 8.04674 8.04672
            CHANNELS 3 Zrotation Xrotation Yrotation
            End Site
            {
              OFFSET 1 0 0
            }
          }
          JOINT rightEye
          {
            OFFSET -3.6576 8.04674 8.04672
            CHANNELS 3 Zrotation Xrotation Yrotation
            End Site
            {
              OFFSET 1 0 0
            }
          }
        }
      }
      JOINT rCollar
      {
        OFFSET -2.68224 19.2634 -4.8768
        CHANNELS 3 Zrotation Xrotation Yrotation
        JOINT rShldr
        {
          OFFSET -8.77824 -1.95073 1.46304
          CHANNELS 3 Zrotation Xrotation Yrotation
          JOINT rForeArm
          {
            OFFSET -28.1742 -1.7115 0.48768
            CHANNELS 3 Zrotation Xrotation Yrotation
            JOINT rHand
            {
              OFFSET -22.5879 0.773209 7.07136
              CHANNELS 3 Zrotation Xrotation Yrotation
              JOINT rThumb1
              {
                OFFSET -1.2192 -0.487915 3.41376
                CHANNELS 3 Zrotation Xrotation Yrotation
                JOINT rThumb2
                {
                  OFFSET -3.37035 -0.52449 3.41376
                  CHANNELS 3 Zrotation Xrotation Yrotation
                  End Site
                  {
                    OFFSET -1.78271 -1.18214 1.43049
                  }
                }
              }
              JOINT rIndex1
              {
                OFFSET -7.75947 0.938293 5.60832
                CHANNELS 3 Zrotation Xrotation Yrotation
                JOINT rIndex2
                {
                  OFFSET -2.54057 -0.884171 1.56538
                  CHANNELS 3 Zrotation Xrotation Yrotation
                  End Site
                  {
                    OFFSET -1.62519 -0.234802 1.16502
                  }
                }
              }
              JOINT rMid1
              {
                OFFSET -8.24714 1.18213 3.41376
                CHANNELS 3 Zrotation Xrotation Yrotation
                JOINT rMid2
                {
                  OFFSET -3.10165 -0.590103 1.0647
                  CHANNELS 3 Zrotation Xrotation Yrotation
                  End Site
                  {
                    OFFSET -2.48547 -0.328903 0.83742
                  }
                }
              }
              JOINT rRing1
              {
                OFFSET -8.82822 0.546677 1.51678
                CHANNELS 3 Zrotation Xrotation Yrotation
                JOINT rRing2
                {
                  OFFSET -2.60934 -0.819778 -0.0198488
                  CHANNELS 3 Zrotation Xrotation Yrotation
                  End Site
                  {
                    OFFSET -2.33842 -0.294052 0.168128
                  }
                }
              }
              JOINT rPinky1
              {
                OFFSET -8.27202 -0.0477905 -0.4584
                CHANNELS 3 Zrotation Xrotation Yrotation
                JOINT rPinky2
                {
                  OFFSET -1.82734 -0.647385 -0.700984
                  CHANNELS 3 Zrotation Xrotation Yrotation
                  End Site
                  {
                    OFFSET -1.69225 -0.51767 -0.607171
                  }
                }
              }
            }
          }
        }
      }
      JOINT lCollar
      {
        OFFSET 2.68224 19.2634 -4.8768
        CHANNELS 3 Zrotation Xrotation Yrotation
        JOINT lShldr
        {
          OFFSET 8.77824 -1.95073 1.46304
          CHANNELS 3 Zrotation Xrotation Yrotation
          JOINT lForeArm
          {
            OFFSET 28.1742 -1.7115 0.48768
            CHANNELS 3 Zrotation Xrotation Yrotation
            JOINT lHand
            {
              OFFSET 22.5879 0.773209 7.07136
              CHANNELS 3 Zrotation Xrotation Yrotation
              JOINT lThumb1
              {
                OFFSET 1.2192 -0.487915 3.41376
                CHANNELS 3 Zrotation Xrotation Yrotation
                JOINT lThumb2
                {
                  OFFSET 3.37035 -0.52449 3.41376
                  CHANNELS 3 Zrotation Xrotation Yrotation
                  End Site
                  {
                    OFFSET 1.78271 -1.18214 1.43049
                  }
                }
              }
              JOINT lIndex1
              {
                OFFSET 7.75947 0.938293 5.60832
                CHANNELS 3 Zrotation Xrotation Yrotation
                JOINT lIndex2
                {
                  OFFSET 2.54057 -0.884171 1.56538
                  CHANNELS 3 Zrotation Xrotation Yrotation
                  End Site
                  {
                    OFFSET 1.62519 -0.234802 1.16502
                  }
                }
              }
              JOINT lMid1
              {
                OFFSET 8.24714 1.18213 3.41376
                CHANNELS 3 Zrotation Xrotation Yrotation
                JOINT lMid2
                {
                  OFFSET 3.10165 -0.590103 1.0647
                  CHANNELS 3 Zrotation Xrotation Yrotation
                  End Site
                  {
                    OFFSET 2.48547 -0.328903 0.83742
                  }
                }
              }
              JOINT lRing1
              {
                OFFSET 8.82822 0.546677 1.51678
                CHANNELS 3 Zrotation Xrotation Yrotation
                JOINT lRing2
                {
                  OFFSET 2.60934 -0.819778 -0.0198488
                  CHANNELS 3 Zrotation Xrotation Yrotation
                  End Site
                  {
                    OFFSET 2.33842 -0.294052 0.168128
                  }
                }
              }
              JOINT lPinky1
              {
                OFFSET 8.27202 -0.0477905 -0.4584
                CHANNELS 3 Zrotation Xrotation Yrotation
                JOINT lPinky2
                {
                  OFFSET 1.82734 -0.647385 -0.700984
                  CHANNELS 3 Zrotation Xrotation Yrotation
                  End Site
                  {
                    OFFSET 1.69225 -0.51767 -0.607171
                  }
                }
              }
            }
          }
        }
      }
    }
  }
  JOINT rButtock
  {
    OFFSET -8.77824 4.35084 1.2192
    CHANNELS 3 Zrotation Xrotation Yrotation
    JOINT rThigh
    {
      OFFSET 0 -1.70687 -2.19456
      CHANNELS 3 Zrotation Xrotation Yrotation
      JOINT rShin
      {
        OFFSET 0 -36.8199 0.73152
        CHANNELS 3 Zrotation Xrotation Yrotation
        JOINT rFoot
        {
          OFFSET 0.73152 -45.1104 -5.12064
          CHANNELS 3 Zrotation Xrotation Yrotation
          End Site
          {
            OFFSET -1.1221 -3.69964 12.103
          }
        }
      }
    }
  }
  JOINT lButtock
  {
    OFFSET 8.77824 4.35084 1.2192
    CHANNELS 3 Zrotation Xrotation Yrotation
    JOINT lThigh
    {
      OFFSET 0 -1.70687 -2.19456
      CHANNELS 3 Zrotation Xrotation Yrotation
      JOINT lShin
      {
        OFFSET 0 -36.8199 0.73152
        CHANNELS 3 Zrotation Xrotation Yrotation
        JOINT lFoot
        {
          OFFSET -0.73152 -45.1104 -5.12064
          CHANNELS 3 Zrotation Xrotation Yrotation
          End Site
          {
            OFFSET 1.1221 -3.69964 12.103
          }
        }
      }
    }
  }
}
MOTION
Frames:	8
Frame Time:	0.00833333
3.0734 85.0686 -120.69 0.0 0.0 0.0 0.323381 -0.00164675 0.00924291 0.0892418 -0.00254733 0.015461 1.99892e-15 -1.59028e-15 3.72721e-17 6.0474e-15 3.18055e-15 1.05604e-16 -0.0 0.0 0.0 -0.0 0.0 0.0 9.42922e-16 -1.55301e-18 9.93923e-17 2.42356e-14 -3.16813e-16 1.39149e-15 3.62981e-13 -1.10524e-13 2.22639e-14 4.15683e-12 9.90196e-14 6.04305e-14 9.80326e-12 -2.17038e-14 1.90833e-13 1.69261e-11 -3.49861e-14 3.24417e-13 9.81161e-12 -1.66979e-14 1.78111e-13 7.73091 5.47488 0.417314 9.80381e-12 -2.11706e-14 1.94014e-13 2.90554 0.965183 0.102902 9.81604e-12 -2.08724e-14 1.89243e-13 10.2786 0.731801 0.0259123 9.79929e-12 -2.0276e-14 1.94014e-13 2.22167 -0.733487 -0.20892 1.04499e-15 -1.55301e-18 -9.93923e-17 1.79197e-14 -2.91965e-16 -5.96354e-16 3.62534e-13 1.08536e-13 -9.54166e-15 4.15595e-12 -1.12537e-13 9.85972e-14 9.80355e-12 -4.81661e-15 1.90833e-13 1.69293e-11 -6.36111e-15 3.31573e-13 9.7969e-12 -1.19271e-15 2.06736e-13 -7.73091 5.47488 -0.417314 9.80158e-12 -4.37326e-15 1.90833e-13 -2.90554 0.965183 -0.102902 9.79318e-12 -4.27387e-15 1.90038e-13 -10.2786 0.731801 -0.0259123 9.80625e-12 -4.37326e-15 1.81292e-13 -2.22167 -0.733487 0.20892 -2.03217e-16 0.0 -3.88251e-19 0.739971 -3.92204 -0.0606396 -0.00350543 1.55189 -0.0277762 -0.496418 2.36987 0.104815 2.03217e-16 0.0 3.88251e-19 -0.247579 -2.6651 0.029579 0.00709477 -0.724823 0.0619345 0.492169 3.38959 -0.125002
3.73565 80.6697 -121.023 1.2002 -0.2612 0.2149 -2.80141 5.81891 -0.677345 -0.0612928 -1.92697 -0.449725 0.00398591 3.1149 0.234669 0.223556 -11.0852 0.549046 -0.0 0.0 0.0 -0.0 0.0 0.0 -2.02499e-14 -1.00643e-14 -9.30561e-15 21.4131 10.9678 -3.97362 -18.7668 -16.4063 15.1363 -6.68228e-05 -0.106893 -0.0150244 2.21393e-10 -2.72158e-10 -2.50737e-10 3.83014e-10 -4.71353e-10 -4.33651e-10 2.21401e-10 -2.72154e-10 -2.50746e-10 7.73091 5.47488 0.417314 2.21393e-10 -2.72158e-10 -2.50734e-10 2.90554 0.965183 0.102902 2.21405e-10 -2.72158e-10 -2.50737e-10 10.2786 0.731801 0.0259123 2.21386e-10 -2.72157e-10 -2.50732e-10 2.22167 -0.733487 -0.20892 -2.01885e-14 -1.0065e-14 -9.50323e-15 -19.716 10.6709 -5.61255 27.1327 -24.6945 -13.6803 -0.161662 -8.93944 1.20184 -1.35929e-11 3.10216e-10 1.24552e-10 -2.66063e-11 5.46039e-10 2.14473e-10 -1.36e-11 3.10222e-10 1.24565e-10 -7.73091 5.47488 -0.417314 -1.35943e-11 3.10216e-10 1.24552e-10 -2.90554 0.965183 -0.102902 -1.3603e-11 3.10216e-10 1.24553e-10 -10.2786 0.731801 -0.0259123 -1.35908e-11 3.10216e-10 1.24543e-10 -2.22167 -0.733487 0.20892 -2.03217e-16 0.0 -3.88251e-19 -1.68053 -16.1625 -0.915359 -0.0524853 30.4253 0.387765 -0.262779 8.00476 0.647722 2.03217e-16 0.0 3.88251e-19 -3.08981 -5.95319 0.841593 -0.0586376 12.5537 -0.143153 0.530612 -2.20676 -0.121817
3.7697 80.6474 -118.243 1.3137 -0.3154 0.247 -5.96475 12.0071 -1.35699 -0.292273 -3.94453 -0.929581 -0.005618 6.37725 0.465606 0.727641 -22.8137 1.16972 -0.0 0.0 0.0 -0.0 0.0 0.0 -4.48499e-14 -2.04748e-14 -2.04748e-14 45.8346 22.3566 -8.60455 -28.4327 -29.7152 34.9579 -0.000256174 -0.195626 -0.0274981 4.5028e-10 -5.79471e-10 -4.98817e-10 7.78965e-10 -1.00344e-09 -8.62712e-10 4.50288e-10 -5.79468e-10 -4.98821e-10 7.73091 5.47488 0.417314 4.5028e-10 -5.79473e-10 -4.98813e-10 2.90554 0.965183 0.102902 4.50292e-10 -5.79472e-10 -4.98815e-10 10.2786 0.731801 0.0259123 4.50271e-10 -5.79471e-10 -4.98809e-10 2.22167 -0.733487 -0.20892 -4.48298e-14 -2.04763e-14 -2.06705e-14 -38.1309 21.6183 -12.207 38.766 -45.3679 -37.864 0.0949929 -18.3701 2.57277 -4.51713e-11 6.60725e-10 2.58617e-10 -8.45681e-11 1.16254e-09 4.45232e-10 -4.5179e-11 6.60735e-10 2.58628e-10 -7.73091 5.47488 -0.417314 -4.51721e-11 6.60725e-10 2.58617e-10 -2.90554 0.965183 -0.102902 -4.51811e-11 6.60726e-10 2.5862e-10 -10.2786 0.731801 -0.0259123 -4.51698e-11 6.60726e-10 2.5861e-10 -2.22167 -0.733487 0.20892 -2.03217e-16 0.0 -3.88251e-19 -4.7097 -29.0461 -1.99614 -1.00368 61.0787 1.48824 -0.131135 14.0732 1.22523 2.03217e-16 0.0 3.88251e-19 -6.00664 -9.57404 1.72559 -0.0113213 26.7053 -0.390763 0.573626 -8.25401 -0.0949051
3.8608 80.8506 -115.39 1.665 -0.1822 0.1436 -8.61547 17.4498 -2.1385 -0.456503 -5.7743 -1.38637 -0.0654635 9.34405 0.712419 1.41375 -33.242 1.93277 -0.0 0.0 0.0 -0.0 0.0 0.0 -6.26357e-14 -3.01898e-14 -2.81156e-14 69.4663 32.2111 -13.8707 -29.145 -34.2396 56.4023 -0.000368651 -0.320678 -0.0450739 6.44572e-10 -8.1643e-10 -7.52592e-10 1.11519e-09 -1.41399e-09 -1.3016e-09 6.44579e-10 -8.16429e-10 -7.52593e-10 7.73091 5.47488 0.417314 6.44571e-10 -8.16433e-10 -7.52589e-10 2.90554 0.965183 0.102902 6.44583e-10 -8.16432e-10 -7.5259e-10 10.2786 0.731801 0.0259123 6.44561e-10 -8.16431e-10 -7.52583e-10 2.22167 -0.733487 -0.20892 -6.26556e-14 -3.01919e-14 -2.83109e-14 -52.1225 30.6833 -19.3378 31.2488 -50.583 -72.312 0.753954 -26.7682 3.98987 -6.03858e-11 9.30656e-10 3.73274e-10 -1.13677e-10 1.63813e-09 6.42754e-10 -6.03939e-11 9.3067e-10 3.73282e-10 -7.73091 5.47488 -0.417314 -6.03859e-11 9.30657e-10 3.73274e-10 -2.90554 0.965183 -0.102902 -6.03953e-11 9.30658e-10 3.73278e-10 -10.2786 0.731801 -0.0259123 -6.03849e-11 9.30658e-10 3.73267e-10 -2.22167 -0.733487 0.20892 -2.03217e-16 0.0 -3.88251e-19 -7.92433 -40.6018 -3.31528 -29.6507 87.8893 30.1077 -0.133154 19.2671 1.81656 2.03217e-16 0.0 3.88251e-19 -8.48857 -12.5196 2.51183 0.1596 39.1087 -0.699859 0.608811 -13.3994 -0.118848
3.94034 81.2353 -112.44 2.0766 -0.032 -0.0262 -10.2326 21.033 -3.10836 -0.393175 -7.13577 -1.7802 -0.208017 11.5723 0.992987 2.07774 -40.4283 2.82706 -0.0 0.0 0.0 -0.0 0.0 0.0 -6.33861e-14 -3.81659e-14 -2.69353e-14 87.427 38.8072 -18.9968 -28.2219 -32.1598 70.7111 -0.00035307 -0.536527 -0.0754062 7.52375e-10 -8.77503e-10 -1.02061e-09 1.3021e-09 -1.52068e-09 -1.76507e-09 7.52383e-10 -8.77504e-10 -1.02061e-09 7.73091 5.47488 0.417314 7.52375e-10 -8.77507e-10 -1.02061e-09 2.90554 0.965183 0.102902 7.52386e-10 -8.77507e-10 -1.02061e-09 10.2786 0.731801 0.0259123 7.52363e-10 -8.77505e-10 -1.0206e-09 2.22167 -0.733487 -0.20892 -6.34427e-14 -3.81678e-14 -2.71341e-14 -60.3095 36.2955 -25.3984 26.7433 -44.6695 -92.787 1.51224 -32.6316 5.16297 -3.46903e-11 9.99144e-10 4.3941e-10 -7.06548e-11 1.76143e-09 7.57187e-10 -3.46983e-11 9.99159e-10 4.39416e-10 -7.73091 5.47488 -0.417314 -3.469e-11 9.99145e-10 4.3941e-10 -2.90554 0.965183 -0.102902 -3.46996e-11 9.99146e-10 4.39414e-10 -10.2786 0.731801 -0.0259123 -3.46899e-11 9.99145e-10 4.39403e-10 -2.22167 -0.733487 0.20892 -2.03217e-16 0.0 -3.88251e-19 -10.5682 -48.8742 -4.64375 -175.086 73.6254 175.449 -0.231008 22.2805 2.36609 2.03217e-16 0.0 3.88251e-19 -10.1141 -13.7873 3.00429 0.381718 47.1435 -1.0271 0.602053 -16.2902 -0.271957
3.90315 81.7865 -109.477 2.2517 0.1223 -0.0966 -10.5605 22.0065 -4.34393 0.0426747 -7.87712 -2.09725 -0.477814 12.8585 1.33147 2.40274 -43.1331 3.71439 -0.0 0.0 0.0 -0.0 0.0 0.0 -3.59937e-14 -4.63541e-14 -1.22128e-14 95.1949 41.4117 -22.4708 -28.1713 -30.3739 75.7536 -0.000769525 -0.86039 -0.120933 7.45649e-10 -6.7544e-10 -1.37451e-09 1.2915e-09 -1.17313e-09 -2.37697e-09 7.45659e-10 -6.75442e-10 -1.37451e-09 7.73091 5.47488 0.417314 7.45652e-10 -6.75446e-10 -1.37451e-09 2.90554 0.965183 0.102902 7.45662e-10 -6.75445e-10 -1.37451e-09 10.2786 0.731801 0.0259123 7.45639e-10 -6.75441e-10 -1.3745e-09 2.22167 -0.733487 -0.20892 -3.60868e-14 -4.63545e-14 -1.24217e-14 -63.3262 38.0695 -28.1116 26.7155 -41.065 -98.6179 1.88898 -34.9106 5.6766 7.06591e-11 7.59216e-10 4.54767e-10 1.11653e-10 1.34687e-09 7.85291e-10 7.06522e-11 7.59229e-10 4.54773e-10 -7.73091 5.47488 -0.417314 7.06595e-11 7.59217e-10 4.54768e-10 -2.90554 0.965183 -0.102902 7.06496e-11 7.59217e-10 4.5477e-10 -10.2786 0.731801 -0.0259123 7.06587e-11 7.59216e-10 4.5476e-10 -2.22167 -0.733487 0.20892 -2.03217e-16 0.0 -3.88251e-19 -11.6877 -52.65 -5.44156 -176.087 67.8847 176.435 -0.352395 22.1997 2.90106 2.03217e-16 0.0 3.88251e-19 -10.6441 -12.6946 3.05748 0.470147 49.1326 -1.23307 0.549758 -16.2397 -0.595584
3.79101 82.5555 -106.493 2.1225 0.2707 0.1174 -10.0695 21.1147 -5.72462 0.750739 -8.17411 -2.35746 -0.832259 13.4673 1.7093 2.31277 -42.6378 4.46469 -0.0 0.0 0.0 -0.0 0.0 0.0 1.12964e-14 -5.45678e-14 1.21259e-14 94.8831 41.3834 -24.1613 -28.1925 -30.8586 75.7056 -0.00199193 -1.26231 -0.177453 6.56806e-10 -2.86228e-10 -1.78662e-09 1.13926e-09 -5.02498e-10 -3.08946e-09 6.56819e-10 -2.86231e-10 -1.78663e-09 7.73091 5.47488 0.417314 6.56812e-10 -2.86234e-10 -1.78662e-09 2.90554 0.965183 0.102902 6.56819e-10 -2.86234e-10 -1.78662e-09 10.2786 0.731801 0.0259123 6.56799e-10 -2.86226e-10 -1.78662e-09 2.22167 -0.733487 -0.20892 1.1167e-14 -5.45658e-14 1.19022e-14 -63.418 37.4532 -27.8971 26.5398 -41.7738 -98.7201 1.84411 -34.6458 5.61576 2.31838e-10 3.00248e-10 4.33038e-10 3.91628e-10 5.50263e-10 7.50303e-10 2.31833e-10 3.00257e-10 4.33043e-10 -7.73091 5.47488 -0.417314 2.31839e-10 3.00249e-10 4.33039e-10 -2.90554 0.965183 -0.102902 2.31829e-10 3.00249e-10 4.33039e-10 -10.2786 0.731801 -0.0259123 2.31837e-10 3.00247e-10 4.3303e-10 -2.22167 -0.733487 0.20892 -2.03217e-16 0.0 -3.88251e-19 -11.3966 -53.2264 -5.5763 -175.626 70.9939 176.052 -0.423593 19.9131 3.39683 2.03217e-16 0.0 3.88251e-19 -10.3822 -9.91647 2.80357 0.383808 46.801 -1.28686 0.500099 -14.0776 -1.03208
3.74372 83.1635 -103.533 2.2412 0.3235 0.451 -9.31235 19.4902 -7.03964 1.52696 -8.23789 -2.57038 -1.16922 13.6577 2.07845 1.94131 -40.7842 5.04633 -0.0 0.0 0.0 -0.0 0.0 0.0 5.9676e-14 -5.85571e-14 3.84027e-14 91.1572 40.2635 -24.9337 -28.246 -32.313 73.6189 -0.00385978 -1.72602 -0.242672 5.24626e-10 1.5081e-10 -2.11649e-09 9.11933e-10 2.51222e-10 -3.65975e-09 5.24641e-10 1.50805e-10 -2.11651e-09 7.73091 5.47488 0.417314 5.24634e-10 1.50803e-10 -2.11649e-09 2.90554 0.965183 0.102902 5.2464e-10 1.50803e-10 -2.11649e-09 10.2786 0.731801 0.0259123 5.24622e-10 1.50814e-10 -2.11649e-09 2.22167 -0.733487 -0.20892 5.95179e-14 -5.85531e-14 3.81643e-14 -62.2586 35.9663 -26.5405 26.2746 -44.2905 -96.5461 1.64409 -33.4826 5.34953 3.79542e-10 -2.04104e-10 3.69031e-10 6.49386e-10 -3.27728e-10 6.42081e-10 3.79538e-10 -2.041e-10 3.69036e-10 -7.73091 5.47488 -0.417314 3.79542e-10 -2.04104e-10 3.69033e-10 -2.90554 0.965183 -0.102902 3.79532e-10 -2.04105e-10 3.69029e-10 -10.2786 0.731801 -0.0259123 3.7954e-10 -2.04108e-10 3.69022e-10 -2.22167 -0.733487 0.20892 -2.03217e-16 0.0 -3.88251e-19 -10.3991 -52.4229 -5.29152 -173.863 77.8092 174.389 -0.414287 16.82 3.71369 2.03217e-16 0.0 3.88251e-19 -9.75021 -6.49029 2.44455 0.225778 42.6317 -1.26535 0.492839 -10.7262 -1.51686
